<?xml version="1.0" standalone="no"?>
<!DOCTYPE svg PUBLIC "-//W3C//DTD SVG 20010904//EN"
 "http://www.w3.org/TR/2001/REC-SVG-20010904/DTD/svg10.dtd">
<svg version="1.0" xmlns="http://www.w3.org/2000/svg"
 width="390.000000pt" height="639.000000pt" viewBox="0 0 390.000000 639.000000"
 preserveAspectRatio="xMidYMid meet">

<g transform="translate(0.000000,639.000000) scale(0.100000,-0.100000)"
fill="#000000" stroke="none">
<path d="M1860 6008 c-58 -5 -112 -11 -120 -14 -8 -4 -22 -7 -30 -8 -53 -5
-111 -20 -121 -32 -6 -8 -19 -14 -28 -14 -10 0 -26 -7 -37 -15 -18 -14 -18
-15 6 -6 14 4 30 6 37 4 6 -2 14 1 18 6 9 15 38 14 33 -1 -4 -10 -67 -32 -132
-45 -26 -5 -28 -3 -22 13 6 15 5 17 -5 7 -7 -7 -23 -13 -36 -13 -16 0 -21 -4
-17 -15 5 -12 0 -15 -23 -13 -36 2 -89 -24 -217 -110 -108 -73 -149 -107 -159
-134 -3 -10 -15 -18 -25 -18 -25 0 -48 -26 -30 -33 7 -3 1 -6 -14 -6 -17 -1
-28 -7 -28 -15 0 -7 -7 -19 -15 -26 -8 -7 -15 -23 -15 -35 0 -35 -84 -113
-114 -108 -15 3 -28 -2 -37 -14 -8 -11 -23 -23 -34 -27 -19 -7 -19 -8 -2 -18
10 -5 25 -7 33 -4 11 4 15 0 12 -17 -2 -15 -11 -23 -28 -25 -33 -5 -40 -12
-42 -47 -1 -17 -8 -39 -15 -50 -7 -11 -13 -27 -13 -36 0 -9 -16 -37 -35 -62
-19 -25 -35 -51 -35 -58 0 -6 -9 -27 -21 -45 -15 -25 -18 -38 -10 -52 6 -11 8
-22 5 -24 -3 -3 2 -49 11 -102 11 -73 12 -102 4 -118 -18 -34 -22 -98 -6 -117
8 -9 18 -43 21 -76 13 -114 50 -210 82 -217 10 -2 18 -15 20 -31 1 -15 19 -49
38 -76 20 -27 36 -52 36 -56 0 -3 11 -21 25 -39 14 -18 25 -40 25 -49 0 -10 4
-17 8 -17 5 0 24 -21 42 -47 50 -70 137 -176 202 -245 48 -52 59 -59 72 -49
14 11 13 18 -3 61 -10 27 -24 78 -32 114 -12 64 -12 66 15 104 27 40 76 179
76 219 0 13 4 42 10 65 5 24 16 77 25 118 18 83 49 179 73 225 30 56 77 130
84 133 5 2 8 7 8 11 0 19 133 157 259 271 34 30 89 69 123 86 33 17 65 39 70
49 12 20 125 74 178 86 19 4 71 17 115 29 107 30 343 35 391 8 21 -12 34 -14
41 -7 7 7 21 6 43 -6 17 -9 39 -15 48 -13 9 2 45 -15 79 -39 35 -24 66 -43 70
-43 14 0 52 -46 63 -74 5 -15 10 -51 10 -79 0 -29 5 -70 10 -92 5 -25 5 -44
-1 -51 -5 -6 -16 -38 -25 -70 -8 -33 -19 -60 -24 -62 -6 -2 -10 -8 -10 -13 0
-12 -75 -116 -101 -142 -17 -16 -58 -95 -60 -114 -1 -24 -175 -253 -192 -253
-8 0 -36 -28 -64 -62 -28 -35 -66 -79 -83 -98 -18 -19 -48 -55 -69 -80 -20
-25 -107 -115 -193 -202 -87 -86 -158 -160 -158 -165 0 -5 -15 -27 -33 -49
-18 -21 -48 -74 -65 -118 -30 -73 -59 -121 -123 -199 -27 -33 -31 -41 -110
-196 -36 -71 -46 -99 -38 -112 5 -10 9 -28 9 -42 0 -25 -41 -153 -65 -202 -8
-16 -19 -80 -25 -142 l-10 -112 40 -118 c22 -65 40 -129 40 -142 0 -36 38
-109 61 -116 12 -4 19 -15 19 -32 0 -16 13 -37 34 -56 111 -105 115 -107 159
-107 58 0 77 16 91 80 l12 53 52 2 c42 2 53 -1 57 -17 6 -16 39 -24 82 -19 19
3 60 46 55 59 -1 5 7 14 19 17 38 12 46 28 52 95 7 87 32 193 46 198 6 2 11
12 11 23 0 19 26 68 43 80 5 4 4 15 -2 27 -8 15 -7 23 4 32 7 6 11 18 8 26 -3
8 0 14 5 14 6 0 18 26 27 58 9 31 23 80 32 108 8 29 16 72 17 97 1 27 8 52 19
64 9 11 17 25 17 32 0 20 33 74 58 94 12 10 22 22 22 27 0 5 14 24 30 42 17
18 30 40 30 50 0 9 15 32 33 50 35 36 102 119 102 128 0 12 47 80 56 80 5 0 9
7 9 15 0 8 9 19 20 25 11 6 20 17 20 25 0 8 6 15 14 15 8 0 16 7 20 15 3 8 9
15 13 14 23 -4 33 3 30 23 -1 17 5 24 32 32 21 6 42 23 58 48 14 21 30 38 34
38 5 0 9 4 9 9 0 5 36 45 80 90 45 46 80 91 80 102 0 10 4 19 9 19 5 0 13 10
17 22 4 13 12 27 19 33 7 5 18 26 25 45 7 19 21 44 30 55 10 11 21 31 25 45 4
14 18 41 31 60 13 19 24 41 24 49 0 14 48 61 63 61 4 0 7 15 7 33 0 19 3 37 7
41 8 8 10 17 21 114 4 40 5 75 2 77 -3 2 -4 45 -3 96 3 68 0 96 -11 108 -20
23 -24 43 -15 68 5 13 4 25 -2 28 -5 4 -7 15 -4 26 4 11 2 19 -4 19 -6 0 -11
18 -11 40 0 31 -5 43 -26 56 -14 9 -23 23 -20 30 3 7 1 16 -5 19 -5 4 -7 10
-4 15 3 5 0 12 -7 17 -16 10 -42 63 -59 120 -14 48 -42 78 -82 88 -22 6 -26 4
-21 -9 9 -23 -23 -21 -36 3 -14 27 -13 37 6 55 14 15 13 19 -8 47 -47 62 -251
257 -358 342 -56 46 -230 174 -279 206 -109 74 -151 101 -156 101 -3 0 -24 12
-47 27 -27 16 -83 35 -153 50 -130 28 -166 30 -305 21z m168 -68 c94 -10 162
-31 162 -49 0 -16 -41 -13 -91 4 -32 12 -45 13 -53 4 -8 -9 -6 -10 7 -6 9 4
17 2 17 -3 0 -6 -12 -10 -27 -11 -66 -2 -115 -9 -134 -19 -11 -6 -23 -9 -28
-6 -4 3 -56 -3 -115 -13 -59 -10 -118 -16 -131 -13 l-25 4 24 24 c24 24 132
60 209 69 21 2 45 9 55 14 21 13 17 13 130 1z m-1319 -992 c6 -15 5 -28 -4
-38 -7 -8 -15 -28 -19 -45 -12 -54 -38 -140 -47 -157 -5 -10 -9 -25 -9 -33 0
-8 -4 -15 -9 -15 -20 0 -20 35 0 103 11 40 22 94 24 121 4 45 26 86 47 86 5 0
13 -10 17 -22z"/>
<path d="M1571 1520 c-13 -6 -39 -18 -57 -26 -19 -9 -47 -14 -64 -12 -27 4
-30 2 -30 -22 0 -14 5 -31 12 -38 14 -14 14 -13 -30 -34 l-34 -15 22 -21 c24
-22 24 -56 0 -58 -39 -3 -47 -6 -75 -29 -50 -42 -135 -128 -135 -137 0 -4 7
-8 15 -8 19 0 50 -73 58 -139 3 -29 10 -58 15 -65 5 -6 17 -35 26 -65 32 -99
155 -259 242 -313 35 -22 80 -40 109 -43 6 -1 25 -9 42 -18 18 -10 54 -20 80
-24 27 -3 66 -15 88 -26 31 -16 61 -21 132 -21 51 -1 93 -4 93 -8 0 -3 9 -4
19 -1 11 3 27 -3 38 -14 13 -13 26 -17 39 -12 10 4 49 4 87 1 41 -3 67 -1 67
5 0 19 48 62 77 69 42 10 86 47 122 103 41 64 75 180 67 235 -3 22 -10 82 -16
131 -7 50 -16 94 -21 99 -5 6 -9 24 -9 42 0 17 -7 37 -15 44 -8 7 -15 18 -15
25 0 6 -9 20 -20 30 -11 10 -20 24 -20 32 0 8 -37 51 -82 97 -78 77 -103 93
-164 100 -6 0 -18 9 -28 19 -10 9 -26 17 -36 17 -10 0 -21 4 -24 9 -9 13 -130
51 -164 51 -16 0 -46 7 -66 15 -20 9 -58 17 -84 19 -192 14 -239 15 -261 6z
m-129 -285 c-9 -32 -26 -32 -30 0 -3 19 1 25 16 25 17 0 19 -5 14 -25z m23
-35 c-3 -5 0 -18 7 -29 14 -23 8 -34 -16 -25 -16 6 -22 44 -9 57 10 11 25 8
18 -3z m115 -43 c13 -9 38 -17 56 -17 23 0 34 -6 42 -25 16 -35 15 -55 -2 -55
-15 0 -129 81 -140 99 -9 14 4 37 13 24 3 -5 17 -17 31 -26z m180 -68 c0 -5
-7 -9 -15 -9 -9 0 -12 6 -9 15 6 15 24 11 24 -6z"/>
</g>
</svg>
